<svg width="300" height="26" viewBox="0 0 300 26" fill="none" xmlns="http://www.w3.org/2000/svg">
<path fill-rule="evenodd" clip-rule="evenodd" d="M7.20142 21.3863C7.20142 23.1352 7.6849 23.5349 10.7781 23.5349V24.6341H0V23.5349C2.1265 23.5349 2.85185 23.3349 2.85185 21.4363V3.59781C2.85185 1.69891 2.1265 1.49891 0 1.49891V0.399691H18.0764L18.1732 7.0454H17.3031C16.8197 2.04882 15.6114 1.59935 11.1165 1.59935H7.15328V11.4929H10.343C13.388 11.4929 13.5815 10.9931 13.8231 8.49483H14.6932V15.7402H13.8231C13.5815 13.2419 13.388 12.7919 10.343 12.7919H7.15328V21.3865H7.20171L7.20142 21.3863ZM20.3963 24.6341V23.5349C22.5231 23.5349 23.2481 23.3349 23.2481 21.4363V3.59781C23.2481 1.69891 22.5231 1.49891 20.3963 1.49891V0.399691H30.4496V1.49921C28.3228 1.49921 27.5977 1.6992 27.5977 3.5981V21.4366C27.5977 23.3352 28.3228 23.5352 30.4496 23.5352V24.6344H20.396L20.3963 24.6341ZM53.2624 25.0338L37.216 4.49704V21.3365C37.216 23.2854 38.5208 23.585 40.7444 23.585V24.6845H32.2379V23.585C34.461 23.585 35.6695 23.2854 35.6695 21.3365V2.64821C34.6544 1.54899 33.9293 1.49891 32.2379 1.49891V0.399691H39.7778L52.0541 16.7393V3.69765C52.0541 1.74898 50.7493 1.44914 48.5259 1.44914V0.399691H57.0806V1.49921C54.8576 1.49921 53.649 1.79905 53.649 3.74802V25.0344H53.2624V25.0338ZM64.7174 24.6341H56.259V23.5349C58.4823 23.5349 59.4974 23.2351 60.2222 21.2363L67.859 0.149921H69.9855L78.202 21.3863C78.9271 23.2852 79.2652 23.4848 80.957 23.4848V24.5841H71.1456V23.4848C74.1422 23.4848 74.4322 23.2351 73.7068 21.3863L71.2906 14.9405H63.9439L61.7692 21.1863C61.0926 23.0852 62.1558 23.4848 64.7658 23.4848V24.6341H64.7174ZM64.3789 13.6911H70.7587L67.4239 4.99687L64.3789 13.6911ZM102.997 25.0338L86.9986 4.49704V21.3365C86.9986 23.2854 88.3034 23.585 90.5268 23.585V24.6845H82.2134V23.585C84.2436 23.585 85.4519 23.2854 85.4519 21.3365V2.69828C84.292 1.59906 83.4219 1.49891 81.4889 1.49891V0.399691H89.5117L101.788 16.7393V3.69765C101.788 1.74898 100.483 1.44914 98.2601 1.44914V0.399691H106.767V1.49921C104.543 1.49921 103.335 1.79905 103.335 3.74802V25.0344H102.997V25.0338ZM126.728 0.349913H127.308L127.646 7.59501L126.776 7.64508C126.196 3.49796 124.07 1.29922 120.155 1.29922C115.805 1.29922 112.518 5.14679 112.518 11.0429C112.518 18.5881 117.11 22.8852 121.943 22.8852C124.021 22.8852 125.906 22.2858 127.743 20.2373L128.42 20.9365C126.921 23.1352 123.973 24.9841 120.009 24.9841C114.113 24.9841 108.12 20.3869 108.12 12.6917C108.12 5.24664 113.581 0 120.203 0C123.345 0 124.988 1.39906 125.858 1.39906C126.244 1.39906 126.534 1.04945 126.728 0.349913ZM130.353 24.6341V23.5349C132.479 23.5349 133.205 23.3349 133.205 21.4363V3.59781C133.205 1.69891 132.479 1.49891 130.353 1.49891V0.399691H140.406V1.49921C138.279 1.49921 137.554 1.6992 137.554 3.5981V21.4366C137.554 23.3352 138.279 23.5352 140.406 23.5352V24.6344L130.353 24.6341ZM149.879 24.6341H142.001V23.5349C143.741 23.5349 144.659 23.2351 145.384 21.2363L153.021 0.149921H155.147L163.364 21.3863C164.089 23.2852 164.427 23.4848 166.119 23.4848V24.5841H156.308V23.4848C159.304 23.4848 159.594 23.2351 158.869 21.3863L156.453 14.9405H149.106L146.931 21.1863C146.254 23.0852 147.318 23.4848 149.928 23.4848V24.6341H149.879ZM149.541 13.6911H155.921L152.634 4.99687L149.541 13.6911ZM167.762 24.6341V23.5349C169.889 23.5349 170.614 23.3349 170.614 21.4363V3.59781C170.614 1.69891 169.889 1.49891 167.762 1.49891V0.399691H177.767V1.49921C175.64 1.49921 174.964 1.6992 174.964 3.5981V21.5865C174.964 23.1853 175.737 23.3853 176.994 23.3853H178.202C182.745 23.3853 184.195 22.6858 185.452 17.3393L186.322 17.4391L185.597 24.5847H167.762V24.6347V24.6341ZM216.481 0.399691L216.578 7.44509H215.708C215.225 2.24852 214.017 1.59935 209.521 1.59935H208.072V21.3865C208.072 23.2854 208.748 23.5352 211.648 23.5352V24.6344H200.145V23.5352C203.045 23.5352 203.77 23.2354 203.77 21.3865V1.59906H202.32C197.825 1.59906 196.617 2.24852 196.133 7.44509H195.264L195.36 0.399691H216.481ZM218.753 24.6344V23.5349C220.88 23.5349 221.605 23.3349 221.605 21.4363V3.59781C221.605 1.69891 220.88 1.49891 218.753 1.49891V0.399691H228.806V1.49921C226.679 1.49921 225.954 1.6992 225.954 3.5981V21.4366C225.954 23.3352 226.679 23.5352 228.806 23.5352V24.6344H218.753ZM259.063 0.399396V1.49921C256.936 1.49921 256.018 1.59935 256.211 3.54803L258.048 21.5365C258.241 23.3853 258.918 23.585 261.044 23.585V24.6845H251.039V23.585C253.118 23.585 253.843 23.3853 253.698 21.5365L251.813 2.64791L244.418 25.0836H244.128L236.877 2.59843L235.137 21.4861C234.944 23.385 236.201 23.5847 238.327 23.5847V24.6842H230.497V23.5847C232.624 23.5847 233.349 23.2351 233.494 21.4861L235.331 3.49766C235.524 1.59906 234.606 1.44914 232.479 1.44914V0.399691H240.695L245.626 16.939L250.942 0.399691H259.062L259.063 0.399396ZM277.767 15.7396H276.897C276.656 13.2413 276.462 12.7913 273.417 12.7913H269.84V21.586C269.84 23.1847 270.614 23.3847 271.87 23.3847H273.804C278.347 23.3847 279.797 22.6852 281.054 17.3387L281.924 17.4385L281.102 24.5841H262.639V23.4846C264.766 23.4846 265.491 23.2849 265.491 21.386V3.59781C265.491 1.69891 264.766 1.49891 262.639 1.49891V0.399691H280.377L280.474 6.44571H279.604C279.072 2.14837 278.009 1.64883 273.369 1.64883H269.889V11.4924H273.466C276.51 11.4924 276.704 10.9928 276.945 8.49453H277.815V15.7399H277.767L277.767 15.7396ZM296.424 19.637C296.424 17.4385 295.07 16.3393 292.75 14.99L289.029 12.9913C286.225 11.4423 284.582 9.74338 284.582 6.69548C284.582 2.89827 287.724 0 291.832 0C294.635 0 296.085 1.39906 296.907 1.39906C297.438 1.39906 297.68 1.04945 297.922 0.349913H298.598L298.937 7.14554L298.067 7.19561C297.583 3.89735 295.312 1.34899 292.122 1.34899C289.705 1.34899 288.11 2.8482 288.11 4.9468C288.11 7.24539 289.802 8.19469 291.687 9.24414L294.877 10.9928C297.873 12.6917 300 14.3906 300 17.6385C300 21.9359 296.423 24.9841 291.977 24.9841C288.835 24.9841 287.289 23.4348 286.467 23.4348C285.935 23.4348 285.645 23.9346 285.404 24.6842H284.727L284.244 17.4886L285.114 17.3888C285.79 21.8858 288.787 23.7346 291.783 23.7346C294.297 23.6845 296.423 22.5355 296.423 19.6376L296.424 19.637Z" fill="#231F20"/>
</svg>
