<svg width="40" height="18" viewBox="0 0 40 18" fill="none" xmlns="http://www.w3.org/2000/svg">
<g clip-path="url(#clip0_49_101)">
<g opacity="0.8">
<path fill-rule="evenodd" clip-rule="evenodd" d="M10.2768 6.81509C10.3353 6.89899 10.3698 6.97847 10.3698 7.1377C10.3698 7.21247 10.3205 7.46918 9.99654 8.34426L9.10269 10.638C8.78331 11.4605 8.62577 12.0215 8.62577 12.2995C8.62577 12.6623 8.739 12.932 8.97962 13.1486C9.21039 13.361 9.50516 13.4715 9.84423 13.4715C10.2713 13.4715 10.7328 13.2771 11.2092 12.8927C11.6713 12.5211 12.0199 12.0747 12.2799 11.5311L12.3981 11.2835H11.6024L11.5485 11.3763C11.3322 11.7346 11.0575 12.0791 10.8168 12.2957C10.6107 12.4812 10.3993 12.5875 10.2322 12.5875C10.1882 12.5875 10.1584 12.5787 10.1492 12.5654L10.1292 12.5344C10.1193 12.5169 10.0901 12.4505 10.0901 12.3799C10.0901 12.2026 10.3159 11.6108 10.5467 11.0229L11.2685 9.1537C11.5485 8.49933 11.6861 8.06622 11.7399 7.87155C11.7892 7.69487 11.7892 7.49161 11.7892 7.2529C11.7892 6.83309 11.6516 6.52376 11.347 6.2449C11.0916 6.02419 10.7085 5.89155 10.3162 5.89155C9.73623 5.89155 9.18146 6.11253 8.57254 6.58109C8.24393 6.83309 7.90977 7.17786 7.591 7.6021C7.61039 7.45201 7.62023 7.31493 7.62023 7.17841C7.62023 6.76247 7.52177 6.44872 7.32546 6.23216C7.13408 6.01118 6.80485 5.89155 6.363 5.89155C5.79285 5.89155 5.18885 6.1837 4.52608 6.78462C4.23623 7.04549 3.971 7.32379 3.73531 7.61539C3.80423 7.32379 3.843 7.07207 3.843 6.87324C3.843 6.62124 3.75992 6.39582 3.59777 6.19699C3.43593 5.99346 3.19992 5.89183 2.88577 5.89183C2.45808 5.89183 2.03592 6.08207 1.599 6.47973C1.14208 6.88626 0.754079 7.36367 0.454386 7.89841L0.307617 8.15429H1.167L1.22116 8.06152C1.44669 7.69044 1.72177 7.35453 1.99162 7.10696C2.27654 6.85081 2.42392 6.81536 2.49254 6.81536C2.49746 6.81536 2.50731 6.90813 2.50731 6.90813C2.50731 7.0009 2.34516 7.52706 2.17808 8.07952L0.406079 13.3117H1.90854L2.25716 12.3796C2.99869 10.1431 3.71069 8.68459 4.43254 7.92887C5.33623 6.92087 5.81716 6.77078 6.02392 6.77078C6.05316 6.77078 6.127 6.77521 6.13685 6.80622L6.15162 6.84167L6.18085 6.86798C6.21531 6.90398 6.25469 7.00533 6.25469 7.13382C6.25469 7.38998 6.12239 7.92915 5.88146 8.64943L4.27069 13.3519H5.81746L6.11716 12.4989C6.86393 10.2271 7.61039 8.66687 8.33716 7.85826C9.02454 7.09339 9.57469 6.74004 10.0559 6.74004C10.1932 6.74032 10.2421 6.77078 10.2768 6.81509ZM18.2959 5.76749C18.0799 5.76749 17.903 5.85167 17.795 6.00176C17.6873 6.15213 17.6328 6.3025 17.6328 6.48361C17.6328 6.68687 17.7458 6.95216 17.9621 7.26592C18.1436 7.52678 18.2319 7.79623 18.2319 8.09226C18.2319 8.53422 18.0898 9.28579 17.4073 10.3375C17.0239 10.9523 16.6212 11.5089 16.1796 12.0171C16.395 11.0672 16.5033 10.077 16.5033 9.00693C16.5033 8.02164 16.3513 7.20416 16.0565 6.63841C15.6978 6.04607 15.2904 5.77192 14.7747 5.77192C14.3427 5.77192 13.9501 5.97546 13.6012 6.36869C13.2525 6.72675 13.0559 7.28807 12.9627 8.1853L12.9427 8.3797H13.7187L13.7384 8.22047C13.891 6.97432 14.1907 6.87684 14.2738 6.87684C14.2836 6.87684 14.2984 6.87684 14.3082 6.88127L14.3427 6.88542C14.475 6.88542 14.603 7.04881 14.7504 7.42044C14.9119 7.8181 14.9956 8.40629 14.9956 9.1573C14.9956 10.1825 14.9119 11.1373 14.7452 11.9944C14.5636 12.9403 14.3965 13.5191 14.2147 13.811C14.0178 14.1336 13.6498 14.5401 13.1439 14.9954C12.6282 15.4595 12.1667 15.7555 11.8719 15.9192C11.5335 16.0915 11.2288 16.1668 10.8652 16.1668C10.6688 16.1668 10.3495 16.1402 9.94208 16.0208C9.64239 15.9461 9.37223 15.8971 9.21039 15.8971C8.98423 15.8971 8.78269 15.9544 8.59654 16.0782C8.38054 16.1842 8.24793 16.3833 8.24793 16.6132C8.24793 16.8873 8.38546 17.0992 8.64085 17.2274C8.86669 17.3423 9.191 17.3996 9.63285 17.3996C10.2861 17.3996 10.9098 17.2451 11.5972 16.9178C12.2701 16.5955 13.0655 16.0297 13.8956 15.2867C14.7156 14.5844 15.5553 13.7623 16.5424 12.7105C17.3824 11.8133 18.0452 10.8587 18.5609 9.79367C19.0273 8.83469 19.2532 8.00807 19.2532 7.2745C19.2532 6.85912 19.1701 6.4789 19.0224 6.21389C18.875 5.93558 18.6002 5.76749 18.2959 5.76749Z" fill="black"/>
</g>
<path fill-rule="evenodd" clip-rule="evenodd" d="M20.7915 0.83078H29.5035V3.08493H23.5958V6.22247H28.4623V8.44146H23.5958V13.1442H20.7915V0.83078ZM30.4069 0.83078H39.7521V3.08493H36.5017V13.1442H33.6137V3.08493H30.4069V0.83078Z" fill="black"/>
</g>
<defs>
<clipPath id="clip0_49_101">
<rect width="40" height="18" fill="white"/>
</clipPath>
</defs>
</svg>
