<?xml version="1.0" standalone="no"?>
<!DOCTYPE svg PUBLIC "-//W3C//DTD SVG 20010904//EN"
 "http://www.w3.org/TR/2001/REC-SVG-20010904/DTD/svg10.dtd">
<svg version="1.0" xmlns="http://www.w3.org/2000/svg"
 width="700.000000pt" height="700.000000pt" viewBox="0 0 700.000000 700.000000"
 preserveAspectRatio="xMidYMid meet">
<metadata>
Created by potrace 1.14, written by Peter Selinger 2001-2017
</metadata>
<g transform="translate(0.000000,700.000000) scale(0.100000,-0.100000)"
fill="#000000" stroke="none">
<path d="M3000 6080 c-30 -5 -544 -8 -1142 -9 l-1088 -1 0 -70 0 -70 73 0
c172 0 262 -33 299 -109 l23 -46 0 -1220 0 -1220 -23 -46 c-14 -30 -35 -53
-61 -67 -43 -24 -143 -42 -243 -42 l-68 0 0 -70 0 -70 710 0 710 0 0 68 0 69
-123 7 c-193 10 -276 39 -315 109 -15 29 -17 85 -20 630 l-3 597 238 0 c276
-1 368 -10 440 -46 70 -34 100 -93 116 -228 l11 -96 58 0 58 0 0 450 0 450
-60 0 -60 0 0 -34 c0 -51 -27 -180 -44 -214 -22 -43 -70 -79 -129 -98 -42 -13
-109 -18 -339 -21 l-288 -5 0 617 0 617 378 -4 c344 -4 384 -7 454 -26 101
-28 151 -54 207 -110 85 -86 135 -217 166 -433 9 -63 18 -129 21 -146 l5 -33
64 0 65 0 0 465 c0 437 -1 465 -17 464 -10 -1 -43 -5 -73 -9z"/>
<path d="M3420 5625 l0 -465 60 0 c40 0 62 4 64 13 2 6 11 71 21 142 37 281
109 436 237 512 98 59 184 75 441 80 l227 5 -2 -1293 -3 -1294 -23 -36 c-12
-21 -33 -44 -47 -53 -41 -27 -133 -46 -262 -52 l-123 -7 0 -69 0 -68 745 0
745 0 0 68 0 69 -123 6 c-214 11 -273 34 -317 122 l-25 50 -3 1278 -3 1277
180 0 c182 0 299 -11 382 -35 130 -38 225 -122 278 -248 32 -78 75 -274 87
-394 l7 -73 63 0 64 0 0 465 0 465 -62 -8 c-35 -4 -607 -7 -1273 -7 -665 0
-1238 3 -1272 7 l-63 8 0 -465z"/>
</g>
</svg>
